<?xml version="1.0" encoding="UTF-8"?><svg id="Layer_1" xmlns="http://www.w3.org/2000/svg" xmlns:xlink="http://www.w3.org/1999/xlink" viewBox="0 0 374.616 374"><defs><linearGradient id="linear-gradient" x1="261.714" y1="247.915" x2="202.261" y2="84.569" gradientUnits="userSpaceOnUse"><stop offset="0" stop-color="#bbc2c3"/><stop offset=".393" stop-color="#dcdfe0"/><stop offset=".772" stop-color="#f5f6f6"/><stop offset="1" stop-color="#fff"/></linearGradient><linearGradient id="linear-gradient-2" x1="247.368" y1="238.234" x2="191.674" y2="85.218" gradientUnits="userSpaceOnUse"><stop offset="0" stop-color="#00204c"/><stop offset=".117" stop-color="#052a56"/><stop offset=".322" stop-color="#144673"/><stop offset=".589" stop-color="#2b73a1"/><stop offset=".906" stop-color="#4cb1e1"/><stop offset="1" stop-color="#57c5f6"/></linearGradient><linearGradient id="linear-gradient-3" x1="64.997" y1="133.406" x2="186.188" y2="130.932" gradientUnits="userSpaceOnUse"><stop offset="0" stop-color="#57c5f6"/><stop offset=".094" stop-color="#4cb1e1"/><stop offset=".411" stop-color="#2b73a1"/><stop offset=".678" stop-color="#144673"/><stop offset=".883" stop-color="#052a56"/><stop offset="1" stop-color="#00204c"/></linearGradient><linearGradient id="linear-gradient-4" x1="65.675" y1="166.591" x2="186.865" y2="164.117" gradientUnits="userSpaceOnUse"><stop offset="0" stop-color="#57c5f6"/><stop offset=".094" stop-color="#4cb1e1"/><stop offset=".411" stop-color="#2b73a1"/><stop offset=".678" stop-color="#144673"/><stop offset=".883" stop-color="#052a56"/><stop offset="1" stop-color="#00204c"/></linearGradient><linearGradient id="linear-gradient-5" x1="66.624" y1="213.113" x2="187.815" y2="210.64" gradientUnits="userSpaceOnUse"><stop offset="0" stop-color="#57c5f6"/><stop offset=".094" stop-color="#4cb1e1"/><stop offset=".411" stop-color="#2b73a1"/><stop offset=".678" stop-color="#144673"/><stop offset=".883" stop-color="#052a56"/><stop offset="1" stop-color="#00204c"/></linearGradient><linearGradient id="linear-gradient-6" x1="195.929" y1="266.847" x2="222.586" y2="266.847" xlink:href="#linear-gradient-3"/></defs><path d="M188.975,89.405c4.346-1.668,75.015-6.038,74.964,68.855-.076,1.734.388,3.445,1.299,4.922,4.046,6.561,14.874,23.319,14.874,23.319,0,0,5.221,9.08-4.397,11.553-3.023,1.374-12.092,1.924-4.947,10.443,0,0,3.847,6.595-7.603,6.962,0,0,7.786,5.13,4.855,9.16-7.695,5.405-1.466,14.84-3.573,18.779,0,0-3.847,13.099-27.023,2.29,0,0-40.855-16.305-26.015-54.504,0,0,5.321-9.817,11.366-16.137,7.595-8.046,15.192-19.634,17.211-29.245,4.537-27.855-16.463-51.547-51.013-56.397Z" style="fill:url(#linear-gradient);"/><path d="M185.296,89.719c8.489.16,17.022,1.933,24.942,5.36l2.95,1.341c.976.465,1.889,1.05,2.839,1.571.927.558,1.915,1.025,2.794,1.663l2.673,1.868c.439.321.907.606,1.323.957l1.243,1.062,2.479,2.141,2.268,2.373,1.134,1.19c.362.411.683.858,1.026,1.285l2.029,2.599c.625.904,1.185,1.854,1.78,2.783l.875,1.405c.281.475.493.987.742,1.48l1.44,2.989c.407,1.028.757,2.08,1.136,3.122l.557,1.568c.146.534.264,1.077.397,1.616l.769,3.243.414,3.31c.064.552.145,1.106.193,1.657l.015,1.648.007,3.301-.191,3.369-.591,3.375c-1.041,4.452-3.031,8.547-5.371,12.267-4.79,7.406-10.798,13.542-16.074,20.004-.678.798-1.323,1.609-1.953,2.428l-.956,1.224-.896,1.251c-1.247,1.66-2.265,3.339-3.185,5.141-1.805,3.587-3.047,7.471-3.616,11.467-1.142,7.996.599,16.415,4.936,23.411,2.106,3.549,4.915,6.676,7.954,9.558,1.53,1.435,3.142,2.794,4.817,4.081,1.65,1.321,3.388,2.534,5.13,3.746-3.734-2.009-7.4-4.21-10.759-6.88-3.351-2.663-6.474-5.715-8.986-9.288-2.503-3.569-4.413-7.605-5.549-11.87-1.153-4.256-1.457-8.757-1.03-13.17.426-4.42,1.636-8.774,3.565-12.795.951-1.998,2.099-3.982,3.355-5.742l.922-1.356.967-1.306c.641-.876,1.293-1.74,1.967-2.575,5.345-6.729,11.225-12.827,15.593-19.738,2.195-3.424,3.972-7.059,4.896-10.874l.529-2.882.188-2.976.019-3.056.015-1.53c-.032-.503-.096-1.001-.142-1.502l-.295-3.007-.629-2.958c-.108-.493-.2-.99-.32-1.48l-.476-1.438c-.324-.957-.616-1.927-.962-2.877l-1.254-2.769c-.217-.458-.397-.935-.645-1.378l-.764-1.318c-.514-.876-.992-1.777-1.535-2.639l-1.784-2.487c-.303-.411-.583-.841-.904-1.238l-1.014-1.152-2.029-2.312-2.25-2.107-1.121-1.062c-.373-.355-.801-.647-1.199-.974l-2.434-1.918c-.801-.657-1.718-1.15-2.572-1.735-.878-.549-1.721-1.163-2.631-1.661l-2.757-1.46c-7.393-3.856-15.598-6.199-24.002-7.346Z" style="fill:url(#linear-gradient-2);"/><path d="M196.937,141.71h-62.206c7.361-3.857,9.837-13.382,17.057-18.51,2.572-1.827,5.682-2.742,8.836-2.742h36.313c5.869,0,10.626,4.757,10.626,10.626h0c0,5.869-4.757,10.626-10.626,10.626Z" style="fill:url(#linear-gradient-3);"/><path d="M189.96,175.611h-103.206c10.336-1.008,20.779-13.466,28.057-18.952,2.572-1.87,5.682-2.807,8.836-2.807h66.313c5.869,0,10.626,4.871,10.626,10.879h0c0,6.009-4.757,10.879-10.626,10.879Z" style="fill:url(#linear-gradient-4);"/><path d="M103.868,187.977h64.489c3.115.366,17.313-2.656,22.168,15.481,0,0,6.321,23.084,13.008,31.237-5.894-4.854-12.216-10.059-19.237-15.84-8.244-6.145-13.649-10.084-23.817-9.26h-22.901s-10.992.183-17.588-7.695c-5.166-7.652-9.614-12.155-16.122-13.924Z" style="fill:url(#linear-gradient-5);"/><path d="M195.929,272.893s9.435-18.321,26.656-20.885c-3.206,1.832-19.878,7.42-19.695,29.679l-6.962-8.794Z" style="fill:url(#linear-gradient-6);"/></svg>
